<svg width="210" height="29.782" xmlns="http://www.w3.org/2000/svg">
  <g fill="#001659" fill-rule="evenodd">
    <path d="M15.499 19.54c0-2.746-2.119-5.022-4.983-5.022-2.865 0-4.944 2.276-4.944 5.023 0 2.746 2.08 4.983 4.944 4.983s4.983-2.237 4.983-4.983M0 19.54C0 13.498 4.16 9.26 10.202 9.26c1.962 0 3.845.706 5.258 1.843l.039-10.24h5.572V19.54c0 5.885-4.473 10.24-10.555 10.24C4.552 29.782 0 25.152 0 19.542M36.687 17.5c-.235-2-1.883-3.531-4.237-3.531-2.433 0-4.042 1.57-4.434 3.531h8.671Zm-14.282 1.844c0-5.61 4.08-10.24 10.084-10.24 6.16 0 9.73 4.551 9.73 9.848V20.6H27.78c.393 2.59 2.394 4.316 5.18 4.316 2.119 0 3.884-1.02 4.787-2.825l4.277 2.158c-1.688 3.492-4.905 5.493-9.025 5.493-6.043 0-10.594-4.198-10.594-10.398ZM42.965 19.501c0-5.65 4.591-10.28 10.438-10.24 3.727.038 7.18 1.726 8.946 5.493l-4.59 2.51c-.864-1.686-2.434-2.746-4.356-2.746-2.786 0-4.866 2.237-4.866 4.983 0 2.747 2.08 4.984 4.866 4.984 1.922 0 3.492-1.06 4.355-2.747l4.59 2.511c-1.765 3.767-5.218 5.454-8.945 5.493-5.847.04-10.438-4.63-10.438-10.24M64.114 29.232h5.572V9.81h-5.572v19.422Zm-.667-25.779C63.447 1.57 65.017 0 66.9 0c1.883 0 3.414 1.57 3.414 3.453 0 1.923-1.53 3.453-3.414 3.453a3.458 3.458 0 0 1-3.453-3.453ZM87.303 19.54c0-2.746-2.118-5.022-4.983-5.022-2.864 0-4.944 2.276-4.944 5.023 0 2.746 2.08 4.983 4.944 4.983 2.865 0 4.983-2.237 4.983-4.983m-15.498 0c0-6.043 4.159-10.28 10.201-10.28 1.962 0 3.846.706 5.258 1.843l.04-10.24h5.571V19.54c0 5.885-4.473 10.24-10.555 10.24-5.964 0-10.515-4.63-10.515-10.24M108.492 17.5c-.236-2-1.884-3.531-4.238-3.531-2.433 0-4.041 1.57-4.434 3.531h8.672Zm-14.283 1.844c0-5.61 4.081-10.24 10.084-10.24 6.16 0 9.731 4.551 9.731 9.848V20.6h-14.44c.393 2.59 2.394 4.316 5.18 4.316 2.12 0 3.885-1.02 4.787-2.825l4.277 2.158c-1.687 3.492-4.905 5.493-9.025 5.493-6.042 0-10.594-4.198-10.594-10.398ZM115.751 26.211a3.458 3.458 0 0 1 3.453-3.453c1.883 0 3.414 1.57 3.414 3.453 0 1.883-1.53 3.453-3.414 3.453a3.458 3.458 0 0 1-3.453-3.453M125.443 25.662 121.715 9.81h5.219l3.374 14.792c0 .079-.039.079.118.079.118 0 .078-.04.078-.04l2.865-11.26c.745-2.787 2.354-4.16 4.748-4.16 2.432 0 4.002 1.373 4.669 4.08l2.864 11.34c0 .04 0 .08.118.08s.118-.04.118-.119l3.256-14.792h5.14l-3.57 15.852c-.628 2.825-2.864 4.12-4.983 4.12-2.276 0-3.963-1.374-4.67-4.12l-2.903-11.575s.039-.04-.079-.04c-.078 0-.039.04-.039.04l-2.904 11.575c-.667 2.746-2.393 4.12-4.669 4.12-2.158 0-4.355-1.334-5.022-4.12M169.115 19.501c0-2.746-2.119-5.022-4.983-5.022-2.864 0-4.944 2.276-4.944 5.022 0 2.747 2.08 5.023 4.944 5.023s4.983-2.276 4.983-5.023m-15.499-.039c0-5.611 4.591-10.24 10.516-10.24 6.003 0 10.555 4.668 10.555 10.24 0 5.65-4.59 10.28-10.555 10.28-5.964 0-10.516-4.63-10.516-10.28M176.02 29.232V18.09c0-4.983 2.826-8.79 8.594-8.79 1.255 0 2.628.236 3.61.668v5.414c-.942-.549-2.08-.824-3.1-.824-2.198 0-3.532 1.413-3.532 3.728v10.947h-5.571ZM189.871 29.232V.863h5.572v16.48h1.844c.196-.353.432-.706.706-1.06l5.376-6.473H210l-8.083 9.652 8.044 9.77h-6.631l-5.376-6.592a6.867 6.867 0 0 1-.706-1.137h-1.805v7.73h-5.572Z"/>
  </g>
</svg>
