<?xml version="1.0" encoding="utf-8"?>
<!-- Generator: Adobe Illustrator 23.0.6, SVG Export Plug-In . SVG Version: 6.00 Build 0)  -->
<svg version="1.1" id="Calque_1" xmlns="http://www.w3.org/2000/svg" xmlns:xlink="http://www.w3.org/1999/xlink" x="0px" y="0px"
	 viewBox="0 0 200 33.4" style="enable-background:new 0 0 200 33.4;" xml:space="preserve">
<style type="text/css">
	.st0{fill:#1E266D;}
</style>
<g>
	<path class="st0" d="M45.3,14.3v12.8h-5.1V15.4c0-5.7,2.9-8.6,8.5-8.6c2.6,0,4.5,0.6,5.9,1.7C56,7.4,58,6.9,60.5,6.9
		c5.7,0,8.5,2.8,8.4,8.6v11.8h-2.6c-1.7-0.1-2.5-0.9-2.5-2.5V14.4c-0.1-2.1-1.2-3.1-3.5-3.1s-3.3,1-3.4,3.1v12.8h-5V14.3
		c-0.1-2.1-1.2-3.1-3.5-3.1C46.5,11.2,45.4,12.3,45.3,14.3z"/>
	<path class="st0" d="M74.2,29c2.9,0,3.7-1,2.8-3.5L70,7.4h5.9L80,20.3L82.8,9c0.3-1.1,1.1-1.7,2.5-1.7H89L81.6,29
		c-1.3,3.1-1.8,4.3-6.1,4.3c-1.3,0-2.2-0.2-2.3-0.3l-0.1-4.2L74.2,29z"/>
	<path class="st0" d="M97.7,12.1H97v15.1h-5V6.6c-0.2-3.8,2.1-5.4,5.8-5.4c0.9,0,1.7,0,2.4,0.2v4.2h-1.3c-1.2,0-1.8,0.5-1.9,1.5v1.3
		h3.3v1.2C100.2,11,99.1,12.1,97.7,12.1z"/>
	<path class="st0" d="M108,12.3h-5c0.6-3.6,3.2-5.3,7.9-5.3c5.5,0,8.4,1.7,8.5,5.3v6.5c0,5.3-3.3,7.7-8.8,8c-4.8,0.4-8.2-1.8-8.2-6
		c0.1-4.6,3.6-5.8,8.7-6.3c2.2-0.3,3.3-0.9,3.3-1.9c-0.1-1.1-1.2-1.6-3.3-1.6C109.3,11,108.3,11.4,108,12.3z M114.4,18.7v-1.8
		c-1.2,0.5-2.5,0.9-4,1.2c-2,0.4-3,1.3-3,2.7c0.1,1.5,0.9,2.3,2.5,2.3C112.7,23,114.4,21.4,114.4,18.7z"/>
	<path class="st0" d="M125,1.7c1.7,0,2.5,0.8,2.4,2.5v1.5h-5v-4H125z M125,7.4c1.6,0,2.4,0.8,2.4,2.4v17.7h-5V7.4H125z"/>
	<path class="st0" d="M134.8,27h-2.6V14.3c0-1.4,0.1-2.6,0.3-3.6c0.9-3.3,3.9-4.6,7.8-4.6c3.7,0,6.7,1.3,7.6,4.4
		c0.3,0.6,0.4,1.9,0.4,3.8l-5,1.7v-2.8c0-1.8-0.7-2.7-2.8-2.7c-1.9,0-2.9,1-2.9,3v11C137.4,25.7,136.2,27,134.8,27z"/>
	<path class="st0" d="M156.7,1.7h2.6L159,18.9c0,1.4-0.1,2.6-0.3,3.6c-0.9,3.3-3.9,4.6-7.8,4.6c-3.7,0-6.7-1.3-7.6-4.4
		c-0.3-0.6-0.4-1.9-0.4-3.8l5-1.4V20c0,1.8,0.7,2.7,2.8,2.7c1.9,0,2.9-1,2.9-3l0.3-15.3C154.1,3,155.3,1.7,156.7,1.7z"/>
	<path class="st0" d="M2.9,28.4H0V14.1c0-1.5,0.1-2.9,0.3-4c1-3.7,4.3-5.2,8.5-5.2c4.1,0,7.3,1.4,8.3,4.9c0.3,0.7,0.4,2.1,0.4,4.3
		L12,16v-3.2c0-2-0.8-3.1-3.1-3.1c-2.1,0-3.2,1.1-3.2,3.3v12.3C5.8,27,4.5,28.4,2.9,28.4z"/>
	<path class="st0" d="M26.6,0h2.9v19.3c0,1.5-0.1,2.9-0.3,4c-1,3.7-4.3,5.2-8.5,5.2c-4.1,0-7.3-1.4-8.3-4.9
		c-0.3-0.7-0.4-2.4-0.4-4.5l5.5-1.6v3.1c0,2,0.8,3.1,3.1,3.1c2.1,0,3.2-1.1,3.2-3.3V3.2C23.7,1.4,25,0,26.6,0z"/>
	<path class="st0" d="M180.4,17.1c0,6.6-3.1,10-9.2,10s-9.1-3.3-9.1-10s3-10,9.1-10S180.4,10.4,180.4,17.1z M167.3,17.1
		c0,3.8,1.4,5.6,3.9,5.6c2.6,0,3.9-2,3.9-5.8s-1.3-5.6-3.9-5.6C168.6,11.3,167.3,13.2,167.3,17.1z"/>
	<path class="st0" d="M186.6,9.9c1.3-2,3.1-3,5.6-3c5.2,0.2,7.9,3.5,7.9,10.1c0,6.4-3.1,9.6-9.2,9.7c-6.1,0-9.2-2.8-9.2-8.6V1.7h2.5
		c1.6,0,2.5,0.8,2.5,2.4v5.8H186.6z M186.6,16.8c0,3.9,1.3,5.9,4.1,5.9s4.2-2,4.2-5.9c-0.1-3.7-1.5-5.5-4.2-5.5S186.8,13,186.6,16.8
		z"/>
</g>
</svg>
