<?xml version="1.0" encoding="utf-8"?>
<svg id="Layer_1" data-name="Layer 1" xmlns="http://www.w3.org/2000/svg" viewBox="0 0 307.73 105.94">
  <defs>
    <style>
      .cls-1 {
        fill: #1f3c70;
      }
    </style>
  </defs>
  <title>logo</title>
  <g id="_Groupe_" data-name="&lt;Groupe&gt;">
    <g id="_Groupe_2" data-name="&lt;Groupe&gt;">
      <g id="_Groupe_3" data-name="&lt;Groupe&gt;">
        <g id="_Groupe_4" data-name="&lt;Groupe&gt;">
          <g id="_Groupe_5" data-name="&lt;Groupe&gt;">
            <path id="_Tracé_transparent_" data-name="&lt;Tracé transparent&gt;" class="cls-1" d="M303.8,16.4a4.5,4.5,0,0,1-7.66-3.24,4.28,4.28,0,0,1,1.41-3.28,4.41,4.41,0,0,1,3.1-1.22,4.51,4.51,0,0,1,4.51,4.5A4.33,4.33,0,0,1,303.8,16.4ZM298,10.56a3.74,3.74,0,0,0,0,5.27,3.68,3.68,0,0,0,5.25,0,3.72,3.72,0,0,0,0-5.26,3.65,3.65,0,0,0-5.28,0Zm.68,5.12v-5h2.42a2.44,2.44,0,0,1,1,.26,1.26,1.26,0,0,1,.66,1.19,1.1,1.1,0,0,1-.35.91,1.68,1.68,0,0,1-.87.33,1.63,1.63,0,0,1,.71.29,1.34,1.34,0,0,1,.44,1.12v.45s0,.1,0,.14a.65.65,0,0,0,0,.15l0,.14h-1.25a3.56,3.56,0,0,1-.08-.69,2.32,2.32,0,0,0-.08-.61A.61.61,0,0,0,301,14a1.41,1.41,0,0,0-.45-.08l-.29,0H300v1.77Zm2.38-4a2.18,2.18,0,0,0-.76-.1H300V13h.51a1.21,1.21,0,0,0,.72-.19.68.68,0,0,0,.26-.59A.58.58,0,0,0,301.06,11.66Z"/>
          </g>
        </g>
      </g>
    </g>
    <g id="_Groupe_6" data-name="&lt;Groupe&gt;">
      <g id="_Groupe_7" data-name="&lt;Groupe&gt;">
        <g id="_Groupe_8" data-name="&lt;Groupe&gt;">
          <path id="_Tracé_transparent_2" data-name="&lt;Tracé transparent&gt;" class="cls-1" d="M132.34,13.17h-7.21V2.88h2.06v8.26h5.16Z"/>
          <path id="_Tracé_transparent_3" data-name="&lt;Tracé transparent&gt;" class="cls-1" d="M144.81,13.17h-2.26l-.81-2.29H138l-.81,2.29H135L138.9,2.88h2ZM141,8.92l-.66-1.87c-.21-.6-.41-1.22-.51-1.6-.1.38-.31,1-.51,1.6l-.66,1.87Z"/>
          <path id="_Tracé_transparent_4" data-name="&lt;Tracé transparent&gt;" class="cls-1" d="M156.52,9.85c0,2.16-1.45,3.32-3.66,3.32h-4.67V2.88h4.72c2,0,3.26,1,3.26,2.72a2.26,2.26,0,0,1-1.09,2A2.35,2.35,0,0,1,156.52,9.85Zm-2.44-4.08c0-.65-.37-1-1.26-1H150.2v2h2.72C153.78,6.73,154.08,6.33,154.08,5.76Zm.32,4.11c0-.88-.47-1.32-1.47-1.32H150.2v2.66h2.73C153.94,11.21,154.41,10.68,154.41,9.87Z"/>
          <path id="_Tracé_transparent_5" data-name="&lt;Tracé transparent&gt;" class="cls-1" d="M168.49,8c0,3.32-1.87,5.32-4.54,5.32s-4.53-2-4.53-5.29,1.87-5.32,4.56-5.32S168.49,4.69,168.49,8Zm-2.12,0c0-2.09-1-3.28-2.44-3.28s-2.4,1.16-2.4,3.25,1,3.28,2.44,3.28S166.37,10.12,166.37,8Z"/>
          <path id="_Tracé_transparent_6" data-name="&lt;Tracé transparent&gt;" class="cls-1" d="M180.36,13.17H178l-1.84-3.7h-2.07v3.7H172V2.88h4.79c1.94,0,3.54,1.07,3.54,3.26a2.93,2.93,0,0,1-2,3Zm-2.12-7c0-.93-.56-1.31-1.47-1.31h-2.69V7.52h2.69C177.73,7.52,178.24,7.08,178.24,6.19Z"/>
          <path id="_Tracé_transparent_7" data-name="&lt;Tracé transparent&gt;" class="cls-1" d="M192.88,13.17h-2.26l-.81-2.29H186l-.81,2.29H183L187,2.88h2ZM189.1,8.92l-.66-1.87c-.21-.6-.41-1.22-.51-1.6-.1.38-.31,1-.51,1.6l-.66,1.87Z"/>
          <path id="_Tracé_transparent_8" data-name="&lt;Tracé transparent&gt;" class="cls-1" d="M202.17,4.91h-3v8.26h-2.06V4.91h-3v-2h8Z"/>
          <path id="_Tracé_transparent_9" data-name="&lt;Tracé transparent&gt;" class="cls-1" d="M213.61,8c0,3.32-1.87,5.32-4.54,5.32s-4.53-2-4.53-5.29,1.87-5.32,4.56-5.32S213.61,4.69,213.61,8ZM211.5,8c0-2.09-1-3.28-2.44-3.28s-2.4,1.16-2.4,3.25,1,3.28,2.44,3.28S211.5,10.12,211.5,8Z"/>
          <path id="_Tracé_transparent_10" data-name="&lt;Tracé transparent&gt;" class="cls-1" d="M219.36,13.17H217.3V2.88h2.06Z"/>
          <path id="_Tracé_transparent_11" data-name="&lt;Tracé transparent&gt;" class="cls-1" d="M232,13.17h-2.37l-1.84-3.7h-2.07v3.7h-2.06V2.88h4.79C230.35,2.88,232,4,232,6.14a2.93,2.93,0,0,1-2,3Zm-2.12-7c0-.93-.56-1.31-1.47-1.31h-2.69V7.52h2.69C229.32,7.52,229.84,7.08,229.84,6.19Z"/>
          <path id="_Tracé_transparent_12" data-name="&lt;Tracé transparent&gt;" class="cls-1" d="M242.94,13.17h-7.36V2.88h7.14v2h-5.08V6.67h3v2h-3v2.48h5.3Z"/>
          <path id="_Tracé_transparent_13" data-name="&lt;Tracé transparent&gt;" class="cls-1" d="M253.92,10.05c0,2-1.23,3.28-4,3.28a4.77,4.77,0,0,1-4-1.87l1.48-1.32A3.33,3.33,0,0,0,250,11.31c1.22,0,1.79-.34,1.79-1.12s-.35-1-2.29-1.4-3.22-1-3.22-3.07c0-1.87,1.65-3,3.67-3a4.92,4.92,0,0,1,3.75,1.62l-1.48,1.44a3.14,3.14,0,0,0-2.34-1.06c-1.1,0-1.47.47-1.47.93,0,.65.44.85,2.07,1.23S253.92,7.82,253.92,10.05Z"/>
        </g>
        <g id="_Groupe_9" data-name="&lt;Groupe&gt;">
          <g id="_Groupe_10" data-name="&lt;Groupe&gt;">
            <g id="_Groupe_11" data-name="&lt;Groupe&gt;">
              <g id="_Groupe_12" data-name="&lt;Groupe&gt;">
                <path id="_Tracé_transparent_14" data-name="&lt;Tracé transparent&gt;" class="cls-1" d="M2.91,8.56c.61,17.79-.24,77.53-.34,91.36,0,2.44,1.39,3.3,2.87,3.3h10c7,0,13.07-3.11,13.87-10.24.56-5,.37-12.87.34-18.95,0-.6,0-1,0-1.66C63.72,77.59,81.77,52.31,76.47,30.2c-3.85-16.07-17.79-27-43.64-27-11,0-22.54,2-27.23,2.69C2.69,6.31,2.91,8.56,2.91,8.56ZM29.41,56.3c0-13.72,0-32.27,0-36.41,0,0,0-.89.86-1,11.33-.8,20.58,3.62,22.18,14.72,1.71,11.88-4.05,24.52-22.19,23.8A1.13,1.13,0,0,1,29.41,56.3Z"/>
                <path id="_Tracé_" data-name="&lt;Tracé&gt;" class="cls-1" d="M301.77,32.47c-.26,4.37-2.44,11.45-8.83,11.49l-6.4.06s.08,47.48.11,54.34c0,1.08-.9,1.66-2.24,1.67s-8.57.2-10.67.11c-5-.2-13.07-3.54-13.07-13.53,0-8,.05-42.4.05-42.4l-2.21,0c-3.32,0-9.05-5.08-8.63-11.93a1.29,1.29,0,0,1,1.31-.89l9.56-.08s-.09-8.62.13-10.82C261.78,11,272,9.53,284,9.71a2.08,2.08,0,0,1,2.44,1.93l0,19.51,14-.11A1.27,1.27,0,0,1,301.77,32.47Z"/>
                <path id="_Tracé_transparent_15" data-name="&lt;Tracé transparent&gt;" class="cls-1" d="M171.48,31.68A42.63,42.63,0,0,0,158.85,29c-27.18-2.2-41.26,19.93-38.78,41.31,2.54,21.85,20.54,31.33,35.16,31.33,16.59,0,25-9.11,22-16.74-1.62-4-4.19-3.92-5.6-3.38-16.4,6.38-23.89-.64-25.79-12.44-2.28-14.14,6.2-23.31,20.14-23.17,6.68.07,6.81-4.72,7.16-11.68A3,3,0,0,0,171.48,31.68Zm43.47,70.51c24.22-.09,38.27-21,35.7-42.44-2-16.87-14.52-31.38-35.9-31.31-24.22.08-38.61,21-36,42.44C181.63,95.37,201,102.24,214.95,102.19ZM108.27,30.39C96.86,30,84.8,31.09,84.8,42.52c0,13.66.06,34,.06,41.25,0,11,7.15,15.92,14.69,15.92h8.64s2.29.14,2.27-1.94c-.11-11.66-.13-57.28-.05-65A2.22,2.22,0,0,0,108.27,30.39ZM225.6,62.29c.71,12.14-3.38,23.92-10.72,23.89-6.48,0-10.55-8.27-11.11-17.83-.71-12.14,3.72-23.92,11.06-23.9C221.29,44.48,225,52.73,225.6,62.29Z"/>
              </g>
            </g>
          </g>
          <ellipse id="_Tracé_2" data-name="&lt;Tracé&gt;" class="cls-1" cx="98.9" cy="13.25" rx="12.95" ry="10.49"/>
        </g>
      </g>
    </g>
  </g>
</svg>
