<svg width="168" height="40" viewBox="0 0 168 40" fill="none" xmlns="http://www.w3.org/2000/svg">
    <g clip-path="url(#4smgrqavda)">
        <path d="M15.61 33.78a3.464 3.464 0 0 0-1.173-.213h-.174c-.33-.006-.516.006-.853 0h-.303c-.072 0-.314.017-.392.017-.028 0 .017.118 0 .275V36.277c0 .186-.012.287-.012.287h.45c.28 0 .566.005.852.005h.09c.376 0 .769.04 1.162-.022.252-.04.516-.107.712-.281.028-.028.056-.056.084-.09.118-.14.213-.298.275-.467.258-.697.034-1.647-.724-1.928m1.88 2.086c-.1.388-.36.742-.74 1.141-.051.05-.102.096-.163.14-.528.36-.926.428-1.526.428-.343 0-.702-.023-1.061-.023-.264 0-.533.012-.791.017-.101 0-.382.006-.477.012-.04 0-.028 2.164-.028 2.237h-1.19c.04-.466.04-.939.034-1.4v-1.057c0-.45.005-.916 0-1.372v-3.294c0-.029 0-.057.005-.09h3.451c.214.016.421.05.623.095.477.112.965.354 1.296.72.326.37.522.73.595 1.102.09.438.073.894-.045 1.35M20.357 34.04V34.394c-.006.202-.011.405-.022.607-.012.163.033.59.033.59l.96-.01h2.306s.011.044.011.056c0 .056.011.118.017.174.011.152.028.247.006.388-.006.05 0 .101 0 .146V36.446c0 .056 0 .107-.017.158v.005h-2.997c-.039 0-.073 0-.112.006h-.179l-.006.112c0 .029 0 .057-.006.08 0 .05-.005.09-.005.134 0 .427 0 .86-.006 1.282v.186c.017.224 0 .365 0 .365.584 0 1.431.006 1.925 0 .084 0 .168-.005.247-.017.039 0 1.885.034 2.02.017.056-.005.117-.005.18-.005h.033l.005.016c.017.096.029.135.04.214.005.067.011.084 0 .135-.023.112-.017.236-.017.36 0 .107.006.22-.011.315h-4.383c-.347 0-.707.005-1.054 0a.413.413 0 0 1-.135-.011c-.011-.029-.011-.119-.011-.152V32.572H24.784c0 .011 0 .028.006.04 0 .028.011.061.005.073-.039.18-.039.365-.045.54 0 .106 0 .207-.016.309 0 .062-.012.067-.079.067-.213.006-.42.006-.617.006H20.396c-.061 0-.033.084-.039.4M30.468 36.677c.062-.006.123-.011.185-.023.062-.005.112-.028.157-.045h.017c.376-.151.662-.416.847-.792.258-.535.22-1.057-.118-1.502a1.585 1.585 0 0 0-.937-.607c-.18-.04-.37-.062-.56-.062-.674-.011-1.359-.017-2.02-.022h-.483l-.012.095c-.039.298-.039.63-.039.911 0 .225 0 .478-.017.692-.022.27-.017.573-.01.866v.517s.308.017.364.017c.1 0 .202 0 .303-.011.123-.006.236-.012.348-.012.415.012.903.023 1.397.012.196 0 .387-.023.572-.045m.056.933-.202.017s1.308 1.304 1.353 1.338c.314.281.656.59.965.872h-1.56c-.219-.214-.466-.45-.685-.658-.134-.124-.263-.253-.398-.377-.079-.073-.157-.152-.236-.225-.247-.236-.735-.697-.976-.939-.023-.022-.04 0-.213-.011h-1.122s-.017 1.687-.034 2.165v.033H26.32v-.18c0-.393 0-.81.006-1.203 0-.22.011-1.445.022-1.591l.017-.31c.011-.393.017-.792.017-1.18 0-.23 0-.467.006-.697 0-.158.01-.32.022-.478 0-.079.011-.163.011-.242V33.764c-.017-.208-.005-.416 0-.635.011-.174.017-.354.011-.545.045-.006.085-.012.118-.012H30.4c.427.011.943.163 1.347.405.516.31.864.714 1.066 1.243.185.489.22.984.101 1.507-.073.315-.23.624-.477.944a2.516 2.516 0 0 1-1.02.776c-.225.096-.472.107-.674.13h-.073c-.04 0-.09 0-.157.005M40.674 38.387c-.145.455-.342.849-.752 1.09-.151.09-.302.175-.448.248-.118.062-.337.096-.477.135-.034.006-.068.017-.096.023-.595.157-1.245.129-2.093 0a4.247 4.247 0 0 1-1.184-.355 1.792 1.792 0 0 0-.157-.061c-.056-.023-.106-.04-.151-.062-.421-.203-.786-.49-1.06-.715-.012-.01-.04-.033-.046-.044v-.006c.23-.259.455-.506.719-.737.039.023.067.04.084.057.555.494 1.229.725 1.75.871a2.3 2.3 0 0 0 .54.079c.42.017.762.017 1.07.005.287-.01.54-.084.758-.219a.982.982 0 0 0 .45-1.04.976.976 0 0 0-.596-.748c-.23-.107-.46-.14-.684-.169a80.12 80.12 0 0 0-1.723-.208c-.292-.033-.667-.09-1.02-.247a1.46 1.46 0 0 1-.714-.652c-.123-.22-.173-.461-.224-.714l-.011-.056c-.073-.355.028-.675.168-1.058.056-.151.163-.309.331-.477.23-.231.488-.462.814-.58.056-.022.118-.039.174-.062.174-.061.359-.129.538-.174.253-.067.517-.067.797-.073h.174c.674-.011 1.364.146 2.093.478.157.068.297.163.449.264.034.023.067.045.107.068a.17.17 0 0 1 .022.017s0 .017-.022.039a26.268 26.268 0 0 1-.595.776.15.15 0 0 1-.062-.028l-.095-.05c-.146-.074-.298-.153-.45-.226-.487-.23-1.048-.332-1.716-.315h-.275a1.44 1.44 0 0 0-.988.4c-.174.157-.241.36-.303.613-.067.298.084.646.354.787.303.163.589.258.937.28.151.012.303.018.454.029.242.011.483.028.724.05.286.029.573.08.853.141.488.113.875.32 1.173.641a2.026 2.026 0 0 1 .398 1.957M48.794 35.411c-.28-.753-.657-1.248-1.307-1.524-.068-.028-.096-.056-.163-.078-.073-.028-.185-.057-.258-.09a2.473 2.473 0 0 0-.937-.214c-.505-.011-1.005.14-1.543.377a.81.81 0 0 0-.124.067 2.687 2.687 0 0 0-.757.703c-.326.455-.5.962-.511 1.507-.011.371.073.742.247 1.136a2.66 2.66 0 0 0 1.403 1.383c.381.163.78.287 1.352.287.05 0 .107.005.157.005.449 0 .926-.14 1.341-.405.718-.45 1.1-1.147 1.2-1.906.068-.489.035-.888-.1-1.253m1.302.742c0 .427-.04.776-.14 1.096a4.288 4.288 0 0 1-.45.984c-.19.315-.454.58-.684.798a2.62 2.62 0 0 1-.438.332c-.325.208-.768.456-1.28.54-.908.157-1.739.101-2.53-.169a4.355 4.355 0 0 1-.634-.292 3.255 3.255 0 0 1-1.032-.877c-.41-.529-.662-1.063-.763-1.63-.062-.36-.113-.743-.045-1.131l.033-.22c.023-.145.04-.28.08-.415a3.79 3.79 0 0 1 .874-1.507 3.65 3.65 0 0 1 1.936-1.085c.225-.051.477-.102.674-.113.213-.017.364-.022.583-.006.42.034.91.096 1.375.293.033.011.062.028.095.04.107.044.213.09.309.134a3.64 3.64 0 0 1 1.678 1.732c.084.174.157.36.224.545.017.051.022.113.034.175.005.045.01.09.022.135.056.275.084.495.084.635M58.513 32.73a11.07 11.07 0 0 0 0 .972c0 .27.01.545 0 .815 0 .068 0 .135-.006.208-.006.191-.017.388-.017.585 0 .202 0 .405.011.602v3.851s0 .056-.01.079h-1.33v-.006c-.08-.112-.17-.225-.248-.337l-.078-.107c-.22-.292-.444-.602-.663-.894-.033-.045-.067-.084-.1-.13-.056-.078-.118-.151-.174-.23a40.638 40.638 0 0 1-.578-.781l-.792-1.063a202.31 202.31 0 0 0-.987-1.316l-.197-.258-.488-.641s.012.663.012.742v.028c0 .782-.012 1.591-.012 2.395V39.842h-1.139V37.7c0-.433 0-.86.006-1.294 0-.14 0-.28.006-.421.005-.27.01-.551 0-.827V34.5a22.197 22.197 0 0 1-.012-.686V32.611h1.375l1.633 2.182c.791 1.057 1.577 2.108 2.362 3.154l.028.034.303.399s-.017-1.53-.011-1.99v-.59c0-.597 0-1.204-.006-1.789v-1.27c0-.046 0-.085.006-.136h1.1v.13M67.237 32.73c-.017.325-.01.657 0 .972 0 .27.012.545 0 .815 0 .068 0 .135-.005.208-.006.191-.017.388-.017.585 0 .202 0 .405.011.602v3.851s0 .056-.011.079h-1.33v-.006c-.079-.112-.168-.225-.247-.337l-.078-.107c-.22-.292-.444-.602-.662-.894-.034-.045-.068-.084-.102-.13-.056-.078-.117-.151-.174-.23a38.613 38.613 0 0 1-.577-.781l-.791-1.063a202.31 202.31 0 0 0-.988-1.316l-.197-.258-.488-.641s.011.663.011.742v.028c0 .782-.011 1.591-.011 2.395V39.842h-1.139V37.7c0-.433 0-.86.006-1.294 0-.14 0-.28.005-.421.006-.27.012-.551 0-.827V34.5a24.47 24.47 0 0 1-.01-.686V32.611h1.374l1.633 2.182c.791 1.057 1.576 2.108 2.362 3.154l.028.034.303.399s-.017-1.53-.011-1.99v-.59c0-.597 0-1.204-.006-1.789v-1.27c0-.046 0-.085.006-.136h1.1v.13M73.36 36.936l-.012-.028a11.065 11.065 0 0 1-.101-.248 16.032 16.032 0 0 1-.343-.86c-.061-.163-.129-.332-.196-.495-.04-.09-.073-.174-.112-.27-.073-.185-.343-1.163-.343-1.163s-.392 1.051-.454 1.192c-.112.264-.23.523-.342.787-.112.253-.219.511-.331.764-.079.186-.28.535-.09.54.382 0 1.201.006 1.57.011h.529c.18-.016.286.012.291-.044l-.067-.192v.006zm2.345 2.907h-1.202c-.094-.31-.257-.737-.482-1.237-.028-.068-.056-.135-.079-.225-.05-.174-.084-.264-.173-.264h-.18c-.342 0-.701 0-1.055-.006-.14 0-.286-.011-.432-.017l-.387-.017c-.163 0-.326-.005-.488-.005-.151 0-.444.04-.595.033-.18 0-.18.08-.247.248-.056.14-.112.253-.174.41-.067.152-.129.31-.185.45l-.129.326-.095.236c-.034.085-.057.068-.118.068h-1.072c.118-.315.46-1.125.679-1.625.118-.281.225-.523.275-.652.095-.236.202-.478.303-.709.123-.286.252-.579.37-.877.045-.107.09-.22.14-.32l.012-.028c.067-.158.14-.315.213-.467.129-.287.264-.59.398-.883.124-.281.242-.562.36-.838.056-.135.117-.275.174-.41.044-.101.084-.203.129-.304l.039-.09c.034-.005.061-.011.084-.011h.819c.04 0 .14 0 .157.011a.475.475 0 0 1 .056.13l.034.084c.084.225.168.455.258.68.14.343.287.692.427 1.03.157.376.32.764.477 1.152.117.292.241.596.353.888.107.27.219.551.331.827.118.292.242.585.365.866.044.112.095.219.14.331.034.085.073.175.112.259l.13.298c.084.197.168.427.252.635 0 .012.006.023.011.034M82.634 38.774c0 .331-.01.624-.017 1.017 0 .012 0 .028-.005.04h-.017c-.202 0-.41.005-.611.005h-4.877s-.022 0-.028-.022v-.354l.017-3.15v-.663c0-.028 0-.73.011-.944.011-.175.011-1.805 0-1.923V32.61c.006 0 .017 0 .045-.005h1.044a.734.734 0 0 1 .005.118v.18c.012.365.017.747.017 1.118 0 .462-.005.928-.01 1.378 0 .433-.012.877-.012 1.316v2.024s1.05.005 1.464.005h.645c.157 0 1.336.04 1.717.006.174-.017.36-.011.54-.011h.089v.017M85.164 32.602v.05c0 .422 0 .844-.005 1.265 0 .422 0 .844-.006 1.265v2.069c0 .08-.005.158-.011.242 0 .05-.006.101-.011.158v.742c0 .022 0 .045.005.067v.057c-.044.197-.039.393-.033.579V39.855H84.02V37.493c0-.202-.011-.416.011-.618.011-.13.011-.253.006-.377 0-.124-.006-.242.005-.354.023-.208.023-.416.017-.624v-.13c0-.09 0-.18-.01-.27 0-.084-.012-.168-.012-.252 0-.119 0-.237.005-.355 0-.062 0-.123.006-.185v-.085l.006-.927c0-.192 0-.388.01-.58v-.123h1.09l.01-.011zM93.436 33.602v.029h-.388c-.769 0-1.89-.023-2.267 0h-.218s.016.252.016.303v.36c0 .14 0 .276-.005.416a94.116 94.116 0 0 0-.05 3.632c0 .36-.006.731-.012 1.091 0 .13 0 .281-.005.405h-1.252c0-.118-.005-.247-.005-.354v-.343c0-.45 0-.922.016-1.344 0-.101.006-.203.012-.304.01-.388.022-.781.022-1.175 0-.31.006-.624.011-.928 0-.185.012-1.765.012-1.765H86.752c-.134 0-.168-.011-.179-.017l-.011-1.006h6.896c.045.095.011.916 0 .99M101.751 32.64s-.022.028-.028.04c-.123.196-.264.387-.392.578-.051.073-.102.141-.152.214l-.051.067c-.039.051-.073.102-.112.164-.101.168-.202.331-.303.494-.129.208-.264.422-.392.641-.259.45-.54.894-.808 1.327-.102.158-.197.315-.298.473-.084.14-.18.28-.264.416-.04.056-.073.112-.106.168a.625.625 0 0 0-.101.355c0 .157-.012.315-.017.466-.017.405 0 1.603-.023 1.8h-1.211s0-.051-.006-.074v-.033a11.688 11.688 0 0 1-.006-.754c.006-.056.017-.523.012-.697v-.388c.05-.292-.074-.517-.186-.686-.763-1.13-1.448-2.136-2.081-3.087-.27-.405-.54-.815-.797-1.214l-.185-.287h1.374c.04.056.073.107.107.163.123.186.241.377.365.562.353.54.712 1.097 1.066 1.648.202.315.432.674.695 1.006.023.028.27.473.27.473s.415-.816.522-.996l.09-.146c.274-.466.538-.922.83-1.366.123-.191.219-.388.342-.585.062-.096.123-.197.18-.292.033-.057.067-.118.106-.175.045-.067.09-.14.146-.224.017-.023.034-.046.051-.062h1.369s-.012.01-.012.017M117.153 32.623l-.033.107c-.029.09-.494 1.501-.539 1.642-.034.106-.342 1.012-.443 1.31l-.219.646c-.14.428-.286.872-.438 1.3a.945.945 0 0 1-.045.117c-.05.135-.253.754-.275.821-.078.264-.168.534-.258.793-.034.101-.067.197-.095.298-.023.062-.039.118-.062.186h-1.094s-.017-.034-.017-.045a6.828 6.828 0 0 0-.331-.928.915.915 0 0 1-.062-.186c-.011-.045-.028-.095-.045-.146-.078-.225-.162-.5-.246-.765-.079-.253-.157-.517-.236-.742-.051-.135-.095-.28-.14-.416-.034-.101-.068-.197-.101-.298a259.984 259.984 0 0 0-.236-.883l-.157.703s-.028.045-.034.079c-.174.585-.348 1.226-.522 1.844a104.95 104.95 0 0 1-.499 1.783h-1.234l-.017-.051c-.045-.135-.101-.27-.146-.4a7.86 7.86 0 0 1-.247-.702 6.293 6.293 0 0 0-.219-.602c-.067-.174-.14-.354-.197-.534-.106-.337-.235-.675-.358-1a15.536 15.536 0 0 1-.276-.765 19.754 19.754 0 0 0-.302-.827c-.057-.135-.101-.275-.152-.41-.022-.068-.051-.141-.073-.208-.017-.04-.028-.085-.045-.124a5.31 5.31 0 0 1-.174-.523c-.039-.152-.101-.292-.157-.433-.028-.068-.056-.135-.078-.202v-.017a4.723 4.723 0 0 1-.152-.405v-.006h1.302c.129.31.213.557.281.793.055.203.129.405.201.596l.04.101c.247.664.493 1.372.791 2.311.101.315.202.619.314.95.017.051.129.546.23.827 0 0 .202-.86.213-.917.107-.427.236-.865.388-1.293.05-.14.089-.28.123-.421l.034-.135c.039-.14.337-1.3.375-1.457.029-.1.057-.208.09-.309.107-.343.191-.652.253-.944 0-.023.011-.045.022-.068 0-.011.011-.028.011-.04h.724s.017.034.023.057l.067.213.185.59c.051.158.079.321.107.479.039.214.297 1.029.348 1.226.045.168.09.337.152.511.128.349.241.714.353 1.063.056.169.106.343.163.512.016.045.044.275.061.298 0 0 .152.472.157.478 0 0 .14-.686.174-.804.023-.074.045-.152.073-.225.034-.119.073-.23.112-.349.079-.253.331-.995.331-.995.096-.281.186-.563.281-.844.034-.095.067-.19.101-.292a13.237 13.237 0 0 0 .275-.855 9.69 9.69 0 0 1 .168-.545c.068-.191.124-.354.174-.523h1.257zM121.884 36.936l-.011-.028a10.985 10.985 0 0 1-.102-.248c-.078-.185-.157-.37-.23-.562a16.92 16.92 0 0 0-.308-.793c-.039-.09-.073-.174-.112-.27-.073-.185-.343-1.163-.343-1.163s-.393 1.051-.454 1.192c-.113.264-.23.523-.342.787-.113.253-.219.511-.331.764-.079.186-.281.535-.09.54.381 0 1.201.006 1.571.011h.527c.18-.016.286.012.292-.044l-.067-.192v.006zm2.345 2.907h-1.2a11.64 11.64 0 0 0-.483-1.237 1.556 1.556 0 0 1-.079-.225c-.05-.174-.084-.264-.174-.264h-.179c-.343 0-.702 0-1.055-.006-.14 0-.286-.011-.432-.017l-.382-.017c-.162 0-.325-.005-.488-.005-.151 0-.443.04-.594.033-.18 0-.18.08-.248.248-.056.14-.112.253-.173.41-.068.152-.129.31-.186.45-.044.101-.089.225-.129.326l-.095.236c-.034.085-.056.068-.118.068h-1.071c.117-.315.46-1.125.679-1.625.117-.281.224-.523.274-.652.095-.236.202-.478.303-.709.124-.286.253-.579.371-.877.045-.107.089-.22.14-.32l.011-.028c.068-.158.14-.315.213-.467.129-.287.264-.59.399-.883.123-.281.241-.562.359-.838.056-.135.118-.275.174-.41.045-.101.084-.203.129-.304l.039-.09c.034-.005.062-.011.084-.011h.82c.039 0 .14 0 .157.011a.457.457 0 0 1 .056.13l.033.084c.085.225.169.455.259.68.14.343.286.692.426 1.03.157.376.32.764.477 1.152.118.292.241.596.353.888.107.27.219.551.331.827.118.292.242.585.365.866.045.112.096.219.14.331.034.085.073.175.113.259.044.101.084.197.129.298.084.197.168.427.252.635 0 .012.006.023.011.034M132.388 32.73a10.88 10.88 0 0 0 0 .972c0 .27.011.545 0 .815 0 .068 0 .135-.006.208-.006.191-.017.388-.017.585 0 .202 0 .405.011.602v3.851s0 .056-.011.079h-1.33v-.006c-.078-.112-.168-.225-.247-.337l-.078-.107c-.219-.292-.444-.602-.662-.894-.034-.045-.068-.084-.101-.13-.057-.078-.118-.151-.174-.23a35.16 35.16 0 0 1-.578-.781l-.792-1.063a185.56 185.56 0 0 0-.987-1.316l-.197-.258-.488-.641s.012.663.012.742v.028c0 .782-.012 1.591-.012 2.395V39.842h-1.139V37.7c0-.433 0-.86.006-1.294 0-.14 0-.28.006-.421.005-.27.011-.551 0-.827V34.5a22.057 22.057 0 0 1-.012-.686V32.611h1.375l1.633 2.182c.791 1.057 1.577 2.108 2.362 3.154l.028.034.303.399s-.017-1.53-.011-1.99v-.59c0-.597 0-1.204-.006-1.789v-1.27c0-.046 0-.085.006-.136h1.1v.13M140.67 33.602v.029h-.388c-.769 0-1.891-.023-2.267 0h-.218s.017.252.017.303v.36c0 .14 0 .276-.006.416a95.957 95.957 0 0 0-.051 3.632c0 .36-.005.731-.011 1.091 0 .13 0 .281-.005.405h-1.252c0-.118-.005-.247-.005-.354v-.343c0-.45 0-.922.016-1.344 0-.101 0-.203.006-.304.011-.388.022-.781.022-1.175 0-.31.006-.624.012-.928 0-.185.011-1.765.011-1.765h-2.57c-.135 0-.168-.011-.18-.017-.005-.011-.01-.973-.01-1.006h6.895c.045.095.011.916 0 .99M143.279 34.04V34.394c-.006.202-.012.405-.023.607-.011.163.034.59.034.59l.959-.01h2.306s.012.044.012.056c0 .056.011.118.016.174.012.152.029.247.006.388-.006.05 0 .101 0 .146V36.446c0 .056 0 .107-.017.158v.005h-3.002c-.039 0-.072 0-.112.006h-.179l-.006.112c0 .029 0 .057-.006.08 0 .05-.005.09-.005.134 0 .427 0 .86-.006 1.282v.186c.017.224 0 .365 0 .365.584 0 1.431.006 1.925 0 .084 0 .168-.005.247-.017.039 0 1.891.034 2.02.017.056-.005.117-.005.179-.005h.034l.006.016c.016.096.028.135.039.214.006.067.011.084 0 .135-.023.112-.017.236-.017.36 0 .107.006.22-.011.315h-4.382c-.348 0-.708.005-1.055 0a.413.413 0 0 1-.135-.011c-.011-.029-.011-.119-.011-.152V32.572H147.7c0 .011 0 .028.006.04 0 .028.011.061.006.073-.04.18-.04.365-.045.54 0 .106 0 .207-.017.309 0 .062-.012.067-.079.067-.213.006-.421.006-.617.006H143.312c-.061 0-.033.084-.039.4M154.927 35.76c-.073-.399-.179-.691-.347-.944a3.282 3.282 0 0 0-.315-.394c-.483-.523-1.077-.832-1.773-.832-.23 0-.46-.006-.685-.011h-.129c-.123-.006-.247-.011-.37-.011l-.594-.017h-.197c-.113 0-.073.09-.079.264-.005.14-.005.326-.011.461v.13c0 .219 0 .438-.006.651 0 .49 0 .996-.028 1.49-.016.332-.016.664-.016.99 0 .23 0 .473-.011.709v.511c0 .09.302.062.398.062h1.475c.236 0 .427-.017.607-.056.605-.135 1.077-.478 1.436-.889.308-.354.494-.68.584-1.045.1-.4.117-.742.056-1.069m1.161.422c-.017.59-.124 1.063-.336 1.484-.13.26-.293.557-.5.827-.292.382-.69.703-1.206.984-.354.191-.662.298-.971.326-.022 0-.039 0-.062.006-.034 0-.067.011-.101.011h-1.139c-.881 0-2.155.006-2.536 0V39.083c0-.483 0-.99.028-1.478v-.102c.022-.354.034-.714.039-1.074v-.545c0-.472 0-.956.006-1.434 0-.208.011-.416.017-.618 0-.124.011-.242.011-.366 0-.118 0-.242.006-.36 0-.106 0-.219.005-.326 0-.05 0-.107.012-.157v-.006h1.026c.988 0 2.11.012 2.25 0 .449-.028.87.096 1.33.248.056.017.107.05.168.084.017.011.034.017.051.028.297.174.679.416.971.77.393.473.639.906.763 1.355.123.434.174.77.163 1.086M8.91 23.21c-3.652 0-6.817-1.32-8.91-3.137L2.98 15.3c2.087 1.665 3.9 2.43 5.835 2.43 1.077 0 1.84-.462 1.84-1.232 0-1.08-.858-1.479-3.596-2.31C2.979 12.926.92 11.171.92 7.477.92 2.615 4.73 0 10.167 0c2.918 0 5.774 1.08 7.278 2.277L14.493 7.17c-1.537-1.108-2.951-1.692-4.606-1.692-1.414 0-1.936.618-1.936 1.259 0 .708.522 1.141 3.473 2.002 4.057 1.17 6.268 2.738 6.268 6.955 0 4.493-3.378 7.512-8.787 7.512M28.874 7.636l-1.688 5.696h3.377l-1.689-5.696zm4.484 15.204-1.201-4.094H25.58L24.38 22.84h-7.16L25.003.37h8.108l7.771 22.469h-7.524zM41.623 22.84V.37h7.188v16.745h7.34v5.724H41.622zM67.58 22.84h-7.497L52.772.37h7.682l3.562 13.973L67.58.37h7.312L67.579 22.84zM82.662 7.636l-1.688 5.696h3.377l-1.689-5.696zm4.484 15.204-1.201-4.094h-6.577l-1.2 4.094h-7.16L78.791.37h8.108l7.77 22.469h-7.523zM103.732 6.095V22.84h-7.188V6.095h-4.455V.371h16.098v5.724h-4.455zM142.263 5.724h-1.195v4.307h1.195c1.75 0 2.609-.737 2.609-2.187 0-1.57-.92-2.126-2.609-2.126m2.979 17.116-4.118-7.973v7.973h-7.249V.37h9.37c5.313 0 8.478 2.43 8.478 6.927 0 2.986-1.565 5.263-3.81 6.247l5.348 9.295h-8.019v-.006zM153.597.371V22.84h14.005v-5.663h-6.817V14.44h5.465V8.833h-5.465v-2.8h6.508V.371h-13.696zM123.601 14.614c-3.165 3.177-7.11 4.374-8.799 2.676-1.694-1.698-.499-5.645 2.671-8.816 3.165-3.172 7.109-4.37 8.798-2.677 1.695 1.698.5 5.645-2.67 8.817zm4.943-11.864c-4.814-4.077-13.237-3.576-17.198 1.164-3.249 3.89-3.659 8.35-1.622 12.87 2.054 4.554 6.015 6.27 10.616 6.421 3.906-.095 7.194-1.209 9.612-4.206 3.855-4.779 3.182-12.364-1.414-16.25" fill="#FAFAFA"/>
        <path d="M124.942 11.357A4.36 4.36 0 0 1 120.593 7a.056.056 0 0 0-.056-.057c-.028 0-.056.028-.056.057a4.36 4.36 0 0 1-4.349 4.357.057.057 0 0 0-.056.056c0 .028.028.057.056.057a4.36 4.36 0 0 1 4.349 4.357c0 .034.028.056.056.056s.056-.028.056-.056a4.36 4.36 0 0 1 4.349-4.357.057.057 0 0 0 .056-.057c0-.028-.028-.056-.056-.056z" fill="#FFC700"/>
    </g>
    <defs>
        <clipPath id="4smgrqavda">
            <path fill="#fff" d="M0 0h168v40H0z"/>
        </clipPath>
    </defs>
</svg>
